<svg id="visual" viewBox="0 0 1080 100" width="1080" height="100" xmlns="http://www.w3.org/2000/svg" xmlns:xlink="http://www.w3.org/1999/xlink" version="1.1"><path d="M0 60L25.7 61.2C51.3 62.3 102.7 64.7 154.2 59.8C205.7 55 257.3 43 308.8 40.8C360.3 38.7 411.7 46.3 463 48.5C514.3 50.7 565.7 47.3 617 47.3C668.3 47.3 719.7 50.7 771.2 54.7C822.7 58.7 874.3 63.3 925.8 59.7C977.3 56 1028.7 44 1054.3 38L1080 32L1080 101L1054.3 101C1028.7 101 977.3 101 925.8 101C874.3 101 822.7 101 771.2 101C719.7 101 668.3 101 617 101C565.7 101 514.3 101 463 101C411.7 101 360.3 101 308.8 101C257.3 101 205.7 101 154.2 101C102.7 101 51.3 101 25.7 101L0 101Z" fill="#1d1d23"></path></svg>